<?xml version="1.0" encoding="iso-8859-1"?>
<!-- Generator: Adobe Illustrator 19.0.0, SVG Export Plug-In . SVG Version: 6.00 Build 0)  -->
<svg version="1.1" id="Layer_1" xmlns="http://www.w3.org/2000/svg" xmlns:xlink="http://www.w3.org/1999/xlink" x="0px" y="0px"
	 viewBox="0 0 456.5 456.5" style="enable-background:new 0 0 456.5 456.5;" xml:space="preserve">
<g id="XMLID_1110_">
	<g id="XMLID_852_">
		<circle style="fill:#FFD422;" cx="175.39" cy="180.035" r="175.39"/>
	</g>
	<g id="XMLID_853_">
		<path id="XMLID_854_" style="fill:#663A00;" d="M175.391,423.092v-30c117.48,0,213.058-95.577,213.058-213.058h30
			c0,64.923-25.282,125.96-71.19,171.868C301.35,397.81,240.313,423.092,175.391,423.092z"/>
	</g>
	<circle id="XMLID_855_" style="fill:#AA6100;" cx="403.448" cy="167.62" r="53.052"/>
	<g id="XMLID_858_">
		<path style="fill:#EEBF00;" d="M175.39,4.645v350.781c96.865,0,175.39-78.525,175.39-175.391
			C350.781,83.17,272.256,4.645,175.39,4.645z"/>
	</g>
	<g id="XMLID_864_">
		<circle style="fill:#EEBF00;" cx="175.39" cy="180.035" r="35.815"/>
	</g>
	<g id="XMLID_867_">
		<path style="fill:#DDB200;" d="M175.391,144.22v71.629c19.78,0,35.814-16.035,35.814-35.814S195.17,144.22,175.391,144.22z"/>
	</g>
	<path id="XMLID_929_" style="fill:#AA6100;" d="M88.006,353.114h174.768c5.582,0,10.108,4.525,10.108,10.108v78.525
		c0,5.582-4.525,10.108-10.108,10.108H88.006c-5.582,0-10.108-4.525-10.108-10.108v-78.525
		C77.898,357.638,82.424,353.114,88.006,353.114z"/>
	<path id="XMLID_869_" style="fill:#914F00;" d="M262.775,353.114H175.39v98.741h87.384c5.582,0,10.108-4.525,10.108-10.108v-78.525
		C272.882,357.638,268.357,353.114,262.775,353.114z"/>
</g>
<g>
</g>
<g>
</g>
<g>
</g>
<g>
</g>
<g>
</g>
<g>
</g>
<g>
</g>
<g>
</g>
<g>
</g>
<g>
</g>
<g>
</g>
<g>
</g>
<g>
</g>
<g>
</g>
<g>
</g>
</svg>
